<svg viewBox="0 0 20 20" fill="currentColor" version="1.1" xmlns="http://www.w3.org/2000/svg" xmlns:xlink="http://www.w3.org/1999/xlink">
    <g id="Rounded" transform="translate(-2.000000, -2.000000)">
        <path d="M12,7 C12.55,7 13,7.45 13,8 L13,12 C13,12.55 12.55,13 12,13 C11.45,13 11,12.55 11,12 L11,8 C11,7.45 11.45,7 12,7 Z M11.99,2 C6.47,2 2,6.48 2,12 C2,17.52 6.47,22 11.99,22 C17.52,22 22,17.52 22,12 C22,6.48 17.52,2 11.99,2 Z M12,20 C7.58,20 4,16.42 4,12 C4,7.58 7.58,4 12,4 C16.42,4 20,7.58 20,12 C20,16.42 16.42,20 12,20 Z M13,17 L11,17 L11,15 L13,15 L13,17 Z" id="🔹Icon-Color" />
    </g>
</svg>